<mxfile host="app.diagrams.net" modified="2023-10-04T13:27:29.372Z" agent="Mozilla/5.0 (Windows NT 10.0; Win64; x64) AppleWebKit/537.36 (KHTML, like Gecko) Chrome/117.0.0.0 Safari/537.36" version="21.3.2" etag="Nmq9xIg2FQ9qGy7lPK3o" type="github">
  <diagram name="Page-1" id="FO09BhY3W4npUhEo10gQ">
    <mxGraphModel>
      <root>
        <mxCell id="0" />
        <mxCell id="1" parent="0" />
      </root>
    </mxGraphModel>
  </diagram>
</mxfile>
